<svg width="20" height="20" viewBox="0 0 20 20" fill="none" xmlns="http://www.w3.org/2000/svg">
<path d="M3.33333 6.6665H16.6667M3.33333 6.6665V14C3.33333 14.9334 3.33333 15.3999 3.51498 15.7564C3.67477 16.07 3.92956 16.3252 4.24316 16.485C4.59933 16.6665 5.06582 16.6665 5.99742 16.6665H14.0026C14.9342 16.6665 15.4 16.6665 15.7562 16.485C16.0698 16.3252 16.3254 16.07 16.4852 15.7564C16.6667 15.4002 16.6667 14.9344 16.6667 14.0028V6.6665M3.33333 6.6665V6C3.33333 5.06658 3.33333 4.59952 3.51498 4.243C3.67477 3.9294 3.92956 3.67462 4.24316 3.51483C4.59968 3.33317 5.06674 3.33317 6.00016 3.33317H6.66666M16.6667 6.6665V5.99726C16.6667 5.06567 16.6667 4.59917 16.4852 4.243C16.3254 3.9294 16.0698 3.67462 15.7562 3.51483C15.3996 3.33317 14.9336 3.33317 14.0002 3.33317H13.3333M13.3333 1.6665V3.33317M13.3333 3.33317H6.66666M6.66666 1.6665V3.33317" stroke="#212121" stroke-width="2" stroke-linecap="round" stroke-linejoin="round"/>
</svg>
