<svg width="171" height="36" viewBox="0 0 171 36" fill="none" xmlns="http://www.w3.org/2000/svg">
<path d="M0.934659 15.5V0.954545H6.3892C7.50663 0.954545 8.44413 1.14867 9.2017 1.53693C9.96402 1.92519 10.5393 2.4697 10.9276 3.17045C11.3205 3.86648 11.517 4.6785 11.517 5.60653C11.517 6.5393 11.3182 7.34896 10.9205 8.03551C10.5275 8.71733 9.94744 9.24526 9.1804 9.61932C8.41335 9.98864 7.47112 10.1733 6.35369 10.1733H2.46875V7.9858H5.99858C6.65199 7.9858 7.18703 7.89583 7.60369 7.71591C8.02036 7.53125 8.32813 7.26373 8.52699 6.91335C8.73059 6.55824 8.83239 6.12263 8.83239 5.60653C8.83239 5.09044 8.73059 4.65009 8.52699 4.28551C8.32339 3.91619 8.01326 3.63684 7.59659 3.44744C7.17992 3.25331 6.64252 3.15625 5.98438 3.15625H3.5696V15.5H0.934659ZM8.44886 8.90909L12.0497 15.5H9.10938L5.57244 8.90909H8.44886ZM26.3928 5.86222H23.7365C23.6607 5.42661 23.5211 5.04072 23.3175 4.70455C23.1139 4.36364 22.8606 4.07481 22.5575 3.83807C22.2545 3.60133 21.9089 3.42377 21.5206 3.3054C21.1371 3.18229 20.7228 3.12074 20.2777 3.12074C19.487 3.12074 18.7862 3.3196 18.1754 3.71733C17.5646 4.11032 17.0864 4.68797 16.7408 5.45028C16.3951 6.20786 16.2223 7.13352 16.2223 8.22727C16.2223 9.33996 16.3951 10.2775 16.7408 11.0398C17.0911 11.7973 17.5694 12.3703 18.1754 12.7585C18.7862 13.142 19.4846 13.3338 20.2706 13.3338C20.7062 13.3338 21.1134 13.277 21.4922 13.1634C21.8757 13.045 22.219 12.8722 22.522 12.6449C22.8298 12.4176 23.0878 12.1383 23.2962 11.8068C23.5092 11.4754 23.656 11.0966 23.7365 10.6705L26.3928 10.6847C26.2933 11.3759 26.0779 12.0246 25.7464 12.6307C25.4197 13.2367 24.9912 13.7718 24.4609 14.2358C23.9306 14.6951 23.3104 15.0549 22.6001 15.3153C21.8899 15.571 21.1016 15.6989 20.2351 15.6989C18.9567 15.6989 17.8156 15.4029 16.8118 14.8111C15.808 14.2192 15.0173 13.3646 14.4396 12.2472C13.862 11.1297 13.5732 9.78977 13.5732 8.22727C13.5732 6.66004 13.8643 5.32008 14.4467 4.20739C15.0291 3.08996 15.8222 2.23532 16.826 1.64347C17.8298 1.05161 18.9661 0.755681 20.2351 0.755681C21.0447 0.755681 21.7976 0.869318 22.4936 1.09659C23.1896 1.32386 23.8099 1.65767 24.3544 2.09801C24.8989 2.53362 25.3464 3.06866 25.6967 3.70312C26.0518 4.33286 26.2839 5.05256 26.3928 5.86222ZM41.256 5.86222H38.5998C38.524 5.42661 38.3844 5.04072 38.1808 4.70455C37.9772 4.36364 37.7238 4.07481 37.4208 3.83807C37.1178 3.60133 36.7721 3.42377 36.3839 3.3054C36.0004 3.18229 35.5861 3.12074 35.141 3.12074C34.3503 3.12074 33.6495 3.3196 33.0387 3.71733C32.4279 4.11032 31.9497 4.68797 31.604 5.45028C31.2584 6.20786 31.0856 7.13352 31.0856 8.22727C31.0856 9.33996 31.2584 10.2775 31.604 11.0398C31.9544 11.7973 32.4326 12.3703 33.0387 12.7585C33.6495 13.142 34.3479 13.3338 35.1339 13.3338C35.5695 13.3338 35.9767 13.277 36.3555 13.1634C36.739 13.045 37.0823 12.8722 37.3853 12.6449C37.6931 12.4176 37.9511 12.1383 38.1594 11.8068C38.3725 11.4754 38.5193 11.0966 38.5998 10.6705L41.256 10.6847C41.1566 11.3759 40.9412 12.0246 40.6097 12.6307C40.283 13.2367 39.8545 13.7718 39.3242 14.2358C38.7939 14.6951 38.1737 15.0549 37.4634 15.3153C36.7532 15.571 35.9648 15.6989 35.0984 15.6989C33.82 15.6989 32.6789 15.4029 31.6751 14.8111C30.6713 14.2192 29.8806 13.3646 29.3029 12.2472C28.7253 11.1297 28.4364 9.78977 28.4364 8.22727C28.4364 6.66004 28.7276 5.32008 29.31 4.20739C29.8924 3.08996 30.6855 2.23532 31.6893 1.64347C32.6931 1.05161 33.8294 0.755681 35.0984 0.755681C35.908 0.755681 36.6609 0.869318 37.3569 1.09659C38.0529 1.32386 38.6732 1.65767 39.2177 2.09801C39.7622 2.53362 40.2096 3.06866 40.56 3.70312C40.9151 4.33286 41.1471 5.05256 41.256 5.86222ZM53.4134 5.59943C53.295 5.21591 53.1316 4.87263 52.9233 4.5696C52.7197 4.26184 52.4735 3.99905 52.1847 3.78125C51.9006 3.56345 51.5739 3.40009 51.2045 3.29119C50.8352 3.17756 50.4328 3.12074 49.9972 3.12074C49.2159 3.12074 48.5199 3.31723 47.9091 3.71023C47.2983 4.10322 46.8177 4.68087 46.4673 5.44318C46.1217 6.20076 45.9489 7.12405 45.9489 8.21307C45.9489 9.31155 46.1217 10.242 46.4673 11.0043C46.813 11.7666 47.2936 12.3466 47.9091 12.7443C48.5246 13.1373 49.2396 13.3338 50.054 13.3338C50.7926 13.3338 51.4318 13.1918 51.9716 12.9077C52.5161 12.6236 52.9351 12.2211 53.2287 11.7003C53.5223 11.1747 53.669 10.5592 53.669 9.85369L54.2656 9.94602H50.3168V7.88636H56.2188V9.63352C56.2188 10.8788 55.9536 11.956 55.4233 12.8651C54.893 13.7741 54.1638 14.4749 53.2358 14.9673C52.3078 15.455 51.2424 15.6989 50.0398 15.6989C48.6998 15.6989 47.5232 15.3982 46.5099 14.7969C45.5014 14.1908 44.7131 13.3314 44.1449 12.2188C43.5814 11.1013 43.2997 9.77557 43.2997 8.24148C43.2997 7.06723 43.4654 6.01847 43.7969 5.09517C44.133 4.17188 44.6018 3.38826 45.2031 2.74432C45.8045 2.09564 46.5099 1.60322 47.3196 1.26705C48.1293 0.926136 49.0099 0.755681 49.9616 0.755681C50.7666 0.755681 51.517 0.874053 52.2131 1.1108C52.9091 1.3428 53.527 1.67424 54.0668 2.10511C54.6113 2.53598 55.0587 3.04735 55.4091 3.6392C55.7595 4.23106 55.9891 4.88447 56.098 5.59943H53.4134ZM0.934659 35.5V20.9545H6.3892C7.50663 20.9545 8.44413 21.1487 9.2017 21.5369C9.96402 21.9252 10.5393 22.4697 10.9276 23.1705C11.3205 23.8665 11.517 24.6785 11.517 25.6065C11.517 26.5393 11.3182 27.349 10.9205 28.0355C10.5275 28.7173 9.94744 29.2453 9.1804 29.6193C8.41335 29.9886 7.47112 30.1733 6.35369 30.1733H2.46875V27.9858H5.99858C6.65199 27.9858 7.18703 27.8958 7.60369 27.7159C8.02036 27.5312 8.32813 27.2637 8.52699 26.9134C8.73059 26.5582 8.83239 26.1226 8.83239 25.6065C8.83239 25.0904 8.73059 24.6501 8.52699 24.2855C8.32339 23.9162 8.01326 23.6368 7.59659 23.4474C7.17992 23.2533 6.64252 23.1562 5.98438 23.1562H3.5696V35.5H0.934659ZM8.44886 28.9091L12.0497 35.5H9.10938L5.57244 28.9091H8.44886ZM18.4311 35.7131C17.3658 35.7131 16.4425 35.4787 15.6612 35.0099C14.88 34.5412 14.2739 33.8854 13.843 33.0426C13.4169 32.1998 13.2038 31.215 13.2038 30.0881C13.2038 28.9612 13.4169 27.974 13.843 27.1264C14.2739 26.2789 14.88 25.6207 15.6612 25.152C16.4425 24.6832 17.3658 24.4489 18.4311 24.4489C19.4964 24.4489 20.4197 24.6832 21.201 25.152C21.9822 25.6207 22.5859 26.2789 23.0121 27.1264C23.4429 27.974 23.6584 28.9612 23.6584 30.0881C23.6584 31.215 23.4429 32.1998 23.0121 33.0426C22.5859 33.8854 21.9822 34.5412 21.201 35.0099C20.4197 35.4787 19.4964 35.7131 18.4311 35.7131ZM18.4453 33.6534C19.023 33.6534 19.5059 33.4948 19.8942 33.1776C20.2824 32.8556 20.5713 32.4247 20.7607 31.8849C20.9548 31.3452 21.0518 30.7438 21.0518 30.081C21.0518 29.4134 20.9548 28.8097 20.7607 28.2699C20.5713 27.7254 20.2824 27.2921 19.8942 26.9702C19.5059 26.6482 19.023 26.4872 18.4453 26.4872C17.8535 26.4872 17.361 26.6482 16.968 26.9702C16.5798 27.2921 16.2886 27.7254 16.0945 28.2699C15.9051 28.8097 15.8104 29.4134 15.8104 30.081C15.8104 30.7438 15.9051 31.3452 16.0945 31.8849C16.2886 32.4247 16.5798 32.8556 16.968 33.1776C17.361 33.4948 17.8535 33.6534 18.4453 33.6534ZM29.8888 35.6918C29.0318 35.6918 28.2648 35.4716 27.5877 35.0312C26.9106 34.5909 26.3756 33.9517 25.9826 33.1136C25.5896 32.2756 25.3931 31.2576 25.3931 30.0597C25.3931 28.8475 25.592 27.8248 25.9897 26.9915C26.3922 26.1534 26.9343 25.5213 27.6161 25.0952C28.2979 24.6643 29.0579 24.4489 29.896 24.4489C30.5352 24.4489 31.0607 24.5578 31.4727 24.7756C31.8846 24.9886 32.2113 25.2467 32.4528 25.5497C32.6942 25.848 32.8813 26.1297 33.0138 26.3949H33.1204V20.9545H35.6985V35.5H33.1701V33.7812H33.0138C32.8813 34.0464 32.6895 34.3281 32.4386 34.6264C32.1876 34.92 31.8562 35.1709 31.4442 35.3793C31.0323 35.5876 30.5138 35.6918 29.8888 35.6918ZM30.6062 33.5824C31.1507 33.5824 31.6147 33.4356 31.9982 33.142C32.3817 32.8437 32.6729 32.4295 32.8718 31.8991C33.0707 31.3688 33.1701 30.7509 33.1701 30.0455C33.1701 29.34 33.0707 28.7268 32.8718 28.206C32.6777 27.6851 32.3888 27.2803 32.0053 26.9915C31.6265 26.7027 31.1602 26.5582 30.6062 26.5582C30.0333 26.5582 29.555 26.7074 29.1715 27.0057C28.788 27.304 28.4992 27.7159 28.305 28.2415C28.1109 28.767 28.0138 29.3684 28.0138 30.0455C28.0138 30.7273 28.1109 31.3357 28.305 31.8707C28.5039 32.401 28.7951 32.8201 29.1786 33.1278C29.5669 33.4309 30.0427 33.5824 30.6062 33.5824ZM48.1577 35.7131C47.0923 35.7131 46.169 35.4787 45.3878 35.0099C44.6065 34.5412 44.0005 33.8854 43.5696 33.0426C43.1435 32.1998 42.9304 31.215 42.9304 30.0881C42.9304 28.9612 43.1435 27.974 43.5696 27.1264C44.0005 26.2789 44.6065 25.6207 45.3878 25.152C46.169 24.6832 47.0923 24.4489 48.1577 24.4489C49.223 24.4489 50.1463 24.6832 50.9276 25.152C51.7088 25.6207 52.3125 26.2789 52.7386 27.1264C53.1695 27.974 53.3849 28.9612 53.3849 30.0881C53.3849 31.215 53.1695 32.1998 52.7386 33.0426C52.3125 33.8854 51.7088 34.5412 50.9276 35.0099C50.1463 35.4787 49.223 35.7131 48.1577 35.7131ZM48.1719 33.6534C48.7495 33.6534 49.2325 33.4948 49.6207 33.1776C50.009 32.8556 50.2978 32.4247 50.4872 31.8849C50.6813 31.3452 50.7784 30.7438 50.7784 30.081C50.7784 29.4134 50.6813 28.8097 50.4872 28.2699C50.2978 27.7254 50.009 27.2921 49.6207 26.9702C49.2325 26.6482 48.7495 26.4872 48.1719 26.4872C47.58 26.4872 47.0876 26.6482 46.6946 26.9702C46.3063 27.2921 46.0152 27.7254 45.821 28.2699C45.6316 28.8097 45.5369 29.4134 45.5369 30.081C45.5369 30.7438 45.6316 31.3452 45.821 31.8849C46.0152 32.4247 46.3063 32.8556 46.6946 33.1776C47.0876 33.4948 47.58 33.6534 48.1719 33.6534ZM61.0927 24.5909V26.5795H54.6438V24.5909H61.0927ZM56.256 35.5V23.5611C56.256 22.8272 56.4076 22.2164 56.7106 21.7287C57.0183 21.241 57.4303 20.8764 57.9464 20.6349C58.4625 20.3935 59.0354 20.2727 59.6651 20.2727C60.1102 20.2727 60.5056 20.3082 60.8512 20.3793C61.1969 20.4503 61.4525 20.5142 61.6183 20.571L61.1069 22.5597C60.998 22.5265 60.8607 22.4934 60.695 22.4602C60.5292 22.4223 60.3446 22.4034 60.141 22.4034C59.6628 22.4034 59.3242 22.5194 59.1254 22.7514C58.9312 22.9787 58.8342 23.3054 58.8342 23.7315V35.5H56.256ZM77.9251 25.5994C77.8067 25.2159 77.6433 24.8726 77.435 24.5696C77.2314 24.2618 76.9852 23.9991 76.6964 23.7812C76.4123 23.5634 76.0856 23.4001 75.7163 23.2912C75.3469 23.1776 74.9445 23.1207 74.5089 23.1207C73.7276 23.1207 73.0316 23.3172 72.4208 23.7102C71.81 24.1032 71.3294 24.6809 70.979 25.4432C70.6334 26.2008 70.4606 27.1241 70.4606 28.2131C70.4606 29.3116 70.6334 30.242 70.979 31.0043C71.3247 31.7666 71.8053 32.3466 72.4208 32.7443C73.0363 33.1373 73.7513 33.3338 74.5657 33.3338C75.3043 33.3338 75.9435 33.1918 76.4833 32.9077C77.0278 32.6236 77.4469 32.2211 77.7404 31.7003C78.034 31.1747 78.1808 30.5592 78.1808 29.8537L78.7773 29.946H74.8285V27.8864H80.7305V29.6335C80.7305 30.8788 80.4653 31.956 79.935 32.8651C79.4047 33.7741 78.6755 34.4749 77.7475 34.9673C76.8195 35.455 75.7541 35.6989 74.5515 35.6989C73.2115 35.6989 72.0349 35.3982 71.0217 34.7969C70.0131 34.1908 69.2248 33.3314 68.6566 32.2188C68.0932 31.1013 67.8114 29.7756 67.8114 28.2415C67.8114 27.0672 67.9772 26.0185 68.3086 25.0952C68.6448 24.1719 69.1135 23.3883 69.7148 22.7443C70.3162 22.0956 71.0217 21.6032 71.8313 21.267C72.641 20.9261 73.5217 20.7557 74.4734 20.7557C75.2783 20.7557 76.0288 20.8741 76.7248 21.1108C77.4208 21.3428 78.0387 21.6742 78.5785 22.1051C79.123 22.536 79.5704 23.0473 79.9208 23.6392C80.2712 24.2311 80.5008 24.8845 80.6097 25.5994H77.9251ZM87.9233 35.7131C86.858 35.7131 85.9347 35.4787 85.1534 35.0099C84.3722 34.5412 83.7661 33.8854 83.3352 33.0426C82.9091 32.1998 82.696 31.215 82.696 30.0881C82.696 28.9612 82.9091 27.974 83.3352 27.1264C83.7661 26.2789 84.3722 25.6207 85.1534 25.152C85.9347 24.6832 86.858 24.4489 87.9233 24.4489C88.9886 24.4489 89.9119 24.6832 90.6932 25.152C91.4744 25.6207 92.0781 26.2789 92.5043 27.1264C92.9351 27.974 93.1506 28.9612 93.1506 30.0881C93.1506 31.215 92.9351 32.1998 92.5043 33.0426C92.0781 33.8854 91.4744 34.5412 90.6932 35.0099C89.9119 35.4787 88.9886 35.7131 87.9233 35.7131ZM87.9375 33.6534C88.5152 33.6534 88.9981 33.4948 89.3864 33.1776C89.7746 32.8556 90.0634 32.4247 90.2528 31.8849C90.447 31.3452 90.544 30.7438 90.544 30.081C90.544 29.4134 90.447 28.8097 90.2528 28.2699C90.0634 27.7254 89.7746 27.2921 89.3864 26.9702C88.9981 26.6482 88.5152 26.4872 87.9375 26.4872C87.3456 26.4872 86.8532 26.6482 86.4602 26.9702C86.072 27.2921 85.7808 27.7254 85.5866 28.2699C85.3973 28.8097 85.3026 29.4134 85.3026 30.081C85.3026 30.7438 85.3973 31.3452 85.5866 31.8849C85.7808 32.4247 86.072 32.8556 86.4602 33.1776C86.8532 33.4948 87.3456 33.6534 87.9375 33.6534ZM99.381 35.6918C98.524 35.6918 97.757 35.4716 97.0799 35.0312C96.4028 34.5909 95.8678 33.9517 95.4748 33.1136C95.0818 32.2756 94.8853 31.2576 94.8853 30.0597C94.8853 28.8475 95.0842 27.8248 95.4819 26.9915C95.8844 26.1534 96.4265 25.5213 97.1083 25.0952C97.7901 24.6643 98.5501 24.4489 99.3881 24.4489C100.027 24.4489 100.553 24.5578 100.965 24.7756C101.377 24.9886 101.703 25.2467 101.945 25.5497C102.186 25.848 102.373 26.1297 102.506 26.3949H102.613V20.9545H105.191V35.5H102.662V33.7812H102.506C102.373 34.0464 102.182 34.3281 101.931 34.6264C101.68 34.92 101.348 35.1709 100.936 35.3793C100.525 35.5876 100.006 35.6918 99.381 35.6918ZM100.098 33.5824C100.643 33.5824 101.107 33.4356 101.49 33.142C101.874 32.8437 102.165 32.4295 102.364 31.8991C102.563 31.3688 102.662 30.7509 102.662 30.0455C102.662 29.34 102.563 28.7268 102.364 28.206C102.17 27.6851 101.881 27.2803 101.498 26.9915C101.119 26.7027 100.652 26.5582 100.098 26.5582C99.5255 26.5582 99.0472 26.7074 98.6637 27.0057C98.2802 27.304 97.9914 27.7159 97.7972 28.2415C97.6031 28.767 97.506 29.3684 97.506 30.0455C97.506 30.7273 97.6031 31.3357 97.7972 31.8707C97.9961 32.401 98.2873 32.8201 98.6708 33.1278C99.0591 33.4309 99.5349 33.5824 100.098 33.5824ZM113.005 35.5V20.9545H118.46C119.577 20.9545 120.514 21.1629 121.272 21.5795C122.034 21.9962 122.61 22.5691 122.998 23.2983C123.391 24.0227 123.587 24.8466 123.587 25.7699C123.587 26.7027 123.391 27.5312 122.998 28.2557C122.605 28.9801 122.025 29.5507 121.258 29.9673C120.491 30.3793 119.546 30.5852 118.424 30.5852H114.809V28.419H118.069C118.722 28.419 119.257 28.3054 119.674 28.0781C120.091 27.8509 120.398 27.5384 120.597 27.1406C120.801 26.7429 120.903 26.286 120.903 25.7699C120.903 25.2538 120.801 24.7992 120.597 24.4062C120.398 24.0133 120.088 23.7079 119.667 23.4901C119.25 23.2675 118.713 23.1562 118.055 23.1562H115.64V35.5H113.005ZM128.706 35.7202C128.015 35.7202 127.392 35.5971 126.838 35.3509C126.289 35.0999 125.854 34.7306 125.532 34.2429C125.214 33.7552 125.056 33.1539 125.056 32.4389C125.056 31.8234 125.169 31.3144 125.397 30.9119C125.624 30.5095 125.934 30.1875 126.327 29.946C126.72 29.7045 127.163 29.5223 127.655 29.3991C128.152 29.2713 128.666 29.179 129.196 29.1222C129.836 29.0559 130.354 28.9967 130.752 28.9446C131.15 28.8878 131.438 28.8026 131.618 28.6889C131.803 28.5705 131.895 28.3883 131.895 28.142V28.0994C131.895 27.5644 131.737 27.1501 131.419 26.8565C131.102 26.563 130.645 26.4162 130.049 26.4162C129.419 26.4162 128.919 26.5535 128.55 26.8281C128.185 27.1027 127.939 27.4271 127.811 27.8011L125.411 27.4602C125.6 26.7973 125.913 26.2434 126.348 25.7983C126.784 25.3485 127.317 25.0123 127.946 24.7898C128.576 24.5625 129.272 24.4489 130.034 24.4489C130.56 24.4489 131.083 24.5104 131.604 24.6335C132.125 24.7566 132.601 24.9602 133.032 25.2443C133.462 25.5237 133.808 25.9048 134.069 26.3878C134.334 26.8707 134.466 27.4744 134.466 28.1989V35.5H131.995V34.0014H131.909C131.753 34.3045 131.533 34.5885 131.249 34.8537C130.97 35.1141 130.617 35.3248 130.191 35.4858C129.769 35.642 129.275 35.7202 128.706 35.7202ZM129.374 33.831C129.89 33.831 130.337 33.7292 130.716 33.5256C131.095 33.3172 131.386 33.0426 131.59 32.7017C131.798 32.3608 131.902 31.9891 131.902 31.5866V30.3011C131.822 30.3674 131.685 30.429 131.49 30.4858C131.301 30.5426 131.088 30.5923 130.851 30.6349C130.614 30.6776 130.38 30.7154 130.148 30.7486C129.916 30.7817 129.715 30.8101 129.544 30.8338C129.161 30.8859 128.818 30.9711 128.515 31.0895C128.212 31.2079 127.972 31.3736 127.797 31.5866C127.622 31.795 127.534 32.0649 127.534 32.3963C127.534 32.8698 127.707 33.2273 128.053 33.4688C128.399 33.7102 128.839 33.831 129.374 33.831ZM137.051 35.5V24.5909H139.544V26.4091H139.658C139.857 25.7794 140.198 25.294 140.681 24.9531C141.168 24.6075 141.725 24.4347 142.35 24.4347C142.492 24.4347 142.65 24.4418 142.826 24.456C143.006 24.4654 143.155 24.482 143.273 24.5057V26.8707C143.164 26.8329 142.991 26.7997 142.755 26.7713C142.523 26.7382 142.298 26.7216 142.08 26.7216C141.611 26.7216 141.19 26.8234 140.816 27.027C140.446 27.2259 140.155 27.5028 139.942 27.858C139.729 28.2131 139.623 28.6226 139.623 29.0866V35.5H137.051ZM144.981 35.5V24.5909H147.552V35.5H144.981ZM146.274 23.0426C145.867 23.0426 145.516 22.9077 145.223 22.6378C144.929 22.3632 144.782 22.0341 144.782 21.6506C144.782 21.2623 144.929 20.9332 145.223 20.6634C145.516 20.3887 145.867 20.2514 146.274 20.2514C146.686 20.2514 147.036 20.3887 147.325 20.6634C147.618 20.9332 147.765 21.2623 147.765 21.6506C147.765 22.0341 147.618 22.3632 147.325 22.6378C147.036 22.9077 146.686 23.0426 146.274 23.0426ZM158.818 27.4744L156.474 27.7301C156.408 27.4934 156.292 27.2708 156.126 27.0625C155.965 26.8542 155.748 26.6861 155.473 26.5582C155.198 26.4304 154.862 26.3665 154.464 26.3665C153.929 26.3665 153.48 26.4825 153.115 26.7145C152.755 26.9465 152.578 27.2472 152.582 27.6165C152.578 27.9337 152.694 28.1918 152.93 28.3906C153.172 28.5895 153.57 28.7528 154.124 28.8807L155.984 29.2784C157.017 29.5009 157.784 29.8537 158.286 30.3366C158.792 30.8196 159.048 31.4517 159.053 32.233C159.048 32.9195 158.847 33.5256 158.449 34.0511C158.056 34.572 157.509 34.9792 156.808 35.2727C156.107 35.5663 155.303 35.7131 154.393 35.7131C153.058 35.7131 151.983 35.4337 151.169 34.875C150.355 34.3116 149.869 33.5279 149.713 32.5241L152.22 32.2827C152.334 32.7751 152.575 33.1468 152.945 33.3977C153.314 33.6487 153.795 33.7741 154.386 33.7741C154.997 33.7741 155.487 33.6487 155.857 33.3977C156.231 33.1468 156.418 32.8366 156.418 32.4673C156.418 32.1548 156.297 31.8968 156.055 31.6932C155.819 31.4896 155.449 31.3333 154.947 31.2244L153.087 30.8338C152.04 30.616 151.266 30.2491 150.764 29.733C150.262 29.2121 150.014 28.554 150.018 27.7585C150.014 27.0862 150.196 26.5038 150.565 26.0114C150.939 25.5142 151.458 25.1307 152.121 24.8608C152.788 24.5862 153.558 24.4489 154.429 24.4489C155.707 24.4489 156.714 24.7211 157.447 25.2656C158.186 25.8101 158.643 26.5464 158.818 27.4744ZM163.744 29.108V35.5H161.173V20.9545H163.687V26.4446H163.815C164.07 25.8291 164.466 25.3437 165.001 24.9886C165.54 24.6288 166.227 24.4489 167.06 24.4489C167.818 24.4489 168.478 24.6075 169.042 24.9247C169.605 25.242 170.041 25.706 170.349 26.3168C170.661 26.9276 170.817 27.6733 170.817 28.554V35.5H168.246V28.9517C168.246 28.2178 168.057 27.6473 167.678 27.2401C167.304 26.8281 166.779 26.6222 166.102 26.6222C165.647 26.6222 165.24 26.7216 164.88 26.9205C164.525 27.1146 164.246 27.3963 164.042 27.7656C163.843 28.1349 163.744 28.5824 163.744 29.108Z" fill="#212121"/>
</svg>
