<svg width="16" height="16" viewBox="0 0 16 16" fill="none" xmlns="http://www.w3.org/2000/svg">
<path d="M9.99996 3.66667V12.3333C9.99996 12.6431 9.99996 12.798 10.0256 12.9268C10.1308 13.4557 10.544 13.8694 11.0729 13.9746C11.2017 14.0002 11.3566 14.0002 11.6663 14.0002C11.9761 14.0002 12.1316 14.0002 12.2604 13.9746C12.7893 13.8694 13.2027 13.4557 13.3079 12.9268C13.3333 12.7991 13.3333 12.6458 13.3333 12.3415V3.65851C13.3333 3.35417 13.3333 3.20058 13.3079 3.07292C13.2027 2.544 12.789 2.13083 12.2601 2.02562C12.1313 2 11.9764 2 11.6666 2C11.3569 2 11.2017 2 11.0729 2.02562C10.544 2.13083 10.1308 2.544 10.0256 3.07292C9.99996 3.20172 9.99996 3.3569 9.99996 3.66667Z" fill="#707070"/>
<path d="M2.66663 3.66667V12.3333C2.66663 12.6431 2.66663 12.798 2.69225 12.9268C2.79745 13.4557 3.21062 13.8694 3.73954 13.9746C3.86834 14.0002 4.02323 14.0002 4.333 14.0002C4.64276 14.0002 4.79824 14.0002 4.92704 13.9746C5.45596 13.8694 5.86936 13.4557 5.97457 12.9268C5.99996 12.7991 5.99996 12.6458 5.99996 12.3415V3.65851C5.99996 3.35417 5.99996 3.20058 5.97457 3.07292C5.86936 2.544 5.45567 2.13083 4.92675 2.02562C4.79795 2 4.64306 2 4.33329 2C4.02352 2 3.86834 2 3.73954 2.02562C3.21062 2.13083 2.79745 2.544 2.69225 3.07292C2.66663 3.20172 2.66663 3.3569 2.66663 3.66667Z" fill="#707070"/>
<path d="M9.99996 3.66667V12.3333C9.99996 12.6431 9.99996 12.798 10.0256 12.9268C10.1308 13.4557 10.544 13.8694 11.0729 13.9746C11.2017 14.0002 11.3566 14.0002 11.6663 14.0002C11.9761 14.0002 12.1316 14.0002 12.2604 13.9746C12.7893 13.8694 13.2027 13.4557 13.3079 12.9268C13.3333 12.7991 13.3333 12.6458 13.3333 12.3415V3.65851C13.3333 3.35417 13.3333 3.20058 13.3079 3.07292C13.2027 2.544 12.789 2.13083 12.2601 2.02562C12.1313 2 11.9764 2 11.6666 2C11.3569 2 11.2017 2 11.0729 2.02562C10.544 2.13083 10.1308 2.544 10.0256 3.07292C9.99996 3.20172 9.99996 3.3569 9.99996 3.66667Z" stroke="white" stroke-width="0.6" stroke-linecap="round" stroke-linejoin="round"/>
<path d="M2.66663 3.66667V12.3333C2.66663 12.6431 2.66663 12.798 2.69225 12.9268C2.79745 13.4557 3.21062 13.8694 3.73954 13.9746C3.86834 14.0002 4.02323 14.0002 4.333 14.0002C4.64276 14.0002 4.79824 14.0002 4.92704 13.9746C5.45596 13.8694 5.86936 13.4557 5.97457 12.9268C5.99996 12.7991 5.99996 12.6458 5.99996 12.3415V3.65851C5.99996 3.35417 5.99996 3.20058 5.97457 3.07292C5.86936 2.544 5.45567 2.13083 4.92675 2.02562C4.79795 2 4.64306 2 4.33329 2C4.02352 2 3.86834 2 3.73954 2.02562C3.21062 2.13083 2.79745 2.544 2.69225 3.07292C2.66663 3.20172 2.66663 3.3569 2.66663 3.66667Z" stroke="white" stroke-width="0.6" stroke-linecap="round" stroke-linejoin="round"/>
</svg>
