<svg width="20" height="20" viewBox="0 0 20 20" fill="none" xmlns="http://www.w3.org/2000/svg">
<path d="M1.66667 16.6665H3.33334M3.33334 16.6665H8.33334M3.33334 16.6665V9.54328C3.33334 9.09799 3.33334 8.87523 3.38748 8.66803C3.43546 8.48441 3.51483 8.31065 3.62142 8.15362C3.74171 7.97643 3.90887 7.8295 4.24398 7.53628L8.24531 4.03512C8.86654 3.49154 9.17718 3.21973 9.52702 3.11627C9.83551 3.02504 10.1643 3.02504 10.4728 3.11627C10.8229 3.21981 11.134 3.49187 11.7562 4.03628L15.7562 7.53628C16.0913 7.82949 16.2585 7.97644 16.3788 8.15362C16.4854 8.31065 16.5642 8.48441 16.6121 8.66803C16.6663 8.87523 16.6667 9.09799 16.6667 9.54328V16.6665M8.33334 16.6665H11.6667M8.33334 16.6665V13.3332C8.33334 12.4127 9.07953 11.6665 10 11.6665C10.9205 11.6665 11.6667 12.4127 11.6667 13.3332V16.6665M11.6667 16.6665H16.6667M16.6667 16.6665H18.3333" stroke="#212121" stroke-width="2" stroke-linecap="round" stroke-linejoin="round"/>
</svg>
